General
Unique ID                                : 263171630385434741498136723035309223907 (0xC5FD03293082E673AE8F2224AFE02FE3)
Complete name                            : Yorushika - Kaze wo Hamu [WEB-DL 1080p AAC 2.0 x264-SEKAI].mkv
Format                                   : Matroska
Format version                           : Version 4
File size                                : 231 MiB
Duration                                 : 4 min 44 s
Overall bit rate                         : 6 818 kb/s
Frame rate                               : 23.976 FPS
Title                                    : Yorushika - Kaze wo Hamu [WEB-DL 1080p AAC 2.0 x264-SEKAI]
Encoded date                             : 2026-05-05 10:21:10 UTC
Writing application                      : mkvmerge 98.0 ('Chonks') 64-bit
Writing library                          : libebml v1.4.5 + libmatroska v1.7.1
Website                                  : https://sekai-archivist.blogspot.com/

Video
ID                                       : 1
Format                                   : AVC
Format/Info                              : Advanced Video Codec
Format profile                           : High@L4
Format settings                          : CABAC / 4 Ref Frames
Format settings, CABAC                   : Yes
Format settings, Reference frames        : 4 frames
Format settings, Slice count             : 8 slices per frame
Codec ID                                 : V_MPEG4/ISO/AVC
Duration                                 : 4 min 44 s
Bit rate                                 : 6 578 kb/s
Width                                    : 1 544 pixels
Height                                   : 1 080 pixels
Display aspect ratio                     : 1.430
Frame rate mode                          : Constant
Frame rate                               : 23.976 (24000/1001) FPS
Color space                              : YUV
Chroma subsampling                       : 4:2:0 (Type 2)
Bit depth                                : 8 bits
Scan type                                : Progressive
Bits/(Pixel*Frame)                       : 0.165
Stream size                              : 223 MiB (96%)
Language                                 : Japanese
Default                                  : Yes
Forced                                   : No
Color range                              : Limited
Color primaries                          : BT.709
Transfer characteristics                 : BT.709
Matrix coefficients                      : BT.709

Audio
ID                                       : 2
Format                                   : AAC LC
Format/Info                              : Advanced Audio Codec Low Complexity
Codec ID                                 : A_AAC-2
Duration                                 : 4 min 44 s
Bit rate                                 : 239 kb/s
Channel(s)                               : 2 channels
Channel layout                           : L R
Sampling rate                            : 48.0 kHz
Frame rate                               : 46.875 FPS (1024 SPF)
Compression mode                         : Lossy
Stream size                              : 8.10 MiB (4%)
Language                                 : Japanese
Default                                  : Yes
Forced                                   : No


